<svg xmlns="http://www.w3.org/2000/svg" width="135" height="40"><g fill="none"><rect width="135" height="40" fill="#000" rx="5"/><path fill="#FFF" d="M68.14 21.75c-2.35 0-4.25 1.92-4.24 4.27 0 2.34 1.9 4.24 4.26 4.24 2.35 0 4.25-1.9 4.25-4.26.1-1.13-.4-2.23-1.2-3.03-.8-.8-1.9-1.24-3-1.22h-.07zm0 6.83a2.58 2.58 0 0 1-2.08-4.33 2.57 2.57 0 0 1 2.83-.65c.9.4 1.6 1.34 1.6 2.4 0 .66-.2 1.3-.7 1.8-.5.48-1.1.77-1.8.78h.15zm-9.32-6.83c-2.34 0-4.24 1.92-4.23 4.27 0 2.34 1.9 4.24 4.2 4.24 2.3 0 4.21-1.9 4.21-4.26 0-1.13-.44-2.23-1.24-3.03-.8-.8-1.9-1.24-3.04-1.22h.1zm0 6.83c-1.06.08-2.05-.5-2.5-1.46-.47-.96-.3-2.1.43-2.87.72-.78 1.84-1.04 2.83-.65 1 .4 1.64 1.34 1.64 2.4.04.66-.2 1.3-.65 1.8-.45.48-1.08.77-1.75.78zm-11.08-5.52v1.8h4.32c-.06.84-.4 1.64-.98 2.27-.88.9-2.1 1.37-3.34 1.32a4.801 4.801 0 0 1 0-9.6c1.22-.02 2.4.45 3.26 1.3l1.27-1.28a6.226 6.226 0 0 0-4.52-1.82 6.616 6.616 0 0 0-5.8 3.28c-1.2 2.05-1.2 4.6 0 6.65 1.2 2.06 3.42 3.3 5.8 3.28 1.73.07 3.4-.6 4.6-1.85 1.06-1.1 1.62-2.6 1.57-4.2 0-.4-.03-.7-.1-1.1h-6.08v-.05zm45.3 1.4c-.5-1.58-1.97-2.66-3.63-2.7-1.1 0-2.1.45-2.9 1.26-.7.8-1.1 1.88-1.1 2.98 0 1.13.4 2.22 1.2 3.02.8.8 1.9 1.25 3.1 1.23 1.4 0 2.8-.7 3.6-1.88l-1.4-.97c-.4.73-1.2 1.18-2.1 1.18-.9.03-1.7-.48-2-1.3l5.7-2.34-.2-.48h-.27zm-5.8 1.4c-.03-.6.18-1.23.6-1.7.42-.46 1-.74 1.63-.77.66-.1 1.3.3 1.58.9l-3.8 1.5-.01.07zM82.64 30h1.86V17.5h-1.87V30h.01zm-3.07-7.3h-.07c-.57-.62-1.4-.97-2.24-.95A4.25 4.25 0 0 0 73.19 26c0 2.28 1.7 4.16 4 4.25.8.03 1.6-.33 2.2-.96v.6c0 1.6-.9 2.5-2.3 2.5-1-.1-1.8-.7-2.2-1.5l-1.65.6C74 33 75.5 34 77.15 34c2.2 0 4.05-1.3 4.05-4.45V22h-1.7v.7h.07zm-2.14 5.88c-1.34-.1-2.37-1.23-2.37-2.58a2.58 2.58 0 0 1 2.36-2.57c.66.03 1.26.32 1.7.8.42.5.63 1.14.58 1.8.05.64-.16 1.27-.6 1.76-.42.4-1.03.7-1.67.7v.09zM101.8 17.5h-4.47V30h1.87v-4.74h2.6c1.44.08 2.8-.64 3.54-1.88.75-1.23.75-2.77 0-4a3.879 3.879 0 0 0-3.53-1.88h-.01zm.05 6.02H99.2v-4.28h2.65c.78-.02 1.5.4 1.9 1.06.4.67.4 1.5 0 2.17-.4.67-1.12 1.07-1.9 1.05zm11.54-1.8c-1.4-.08-2.7.67-3.4 1.92l1.6.7c.3-.62 1-.98 1.7-.93 1 0 1.8.7 1.9 1.7v.2c-.6-.3-1.3-.5-2-.5-1.8 0-3.6 1-3.6 2.8.02.8.36 1.6.95 2.1.57.57 1.34.8 2.12.77.92.07 1.83-.4 2.34-1.2h.1v.9h1.8v-4.8c0-2.2-1.63-3.45-3.77-3.45l.26-.21zm-.3 6.86c-.6 0-1.5-.3-1.5-1.06 0-.97 1-1.34 1.9-1.34.6-.02 1.2.13 1.7.42-.2 1.12-1.1 1.96-2.2 1.98h.1zM123.7 22l-2.14 5.42h-.07L119.3 22h-2l3.3 7.57-1.9 4.22h1.97l5.1-11.8h-2.1l.03.01zm-16.8 8h1.86V17.5h-1.88V30h.02z"/><path fill="#00DFFF" d="M10.44 7.54c-.33.4-.5.9-.47 1.4v22.12c-.03.5.14 1 .47 1.4l.07.07 12.4-12.38v-.3L10.5 7.47l-.06.07z"/><path fill="#FFBD00" d="m27.03 24.28-4.13-4.13v-.3l4.13-4.13.1.06 4.9 2.78c1.4.8 1.4 2.1 0 2.9l-4.9 2.77-.1.05z"/><path fill="#FF3A44" d="M27.12 24.23 22.9 20 10.44 32.46c.58.52 1.46.55 2.07.06l14.7-8.3"/><path fill="#00F076" d="m27.12 15.78-14.6-8.3c-.62-.5-1.52-.46-2.1.06L22.9 20l4.22-4.22z"/><path fill="#FFF" stroke="#FFF" stroke-width=".2" d="M42.17 13h-.77V7h2.05c.48 0 .96.17 1.3.5.37.34.57.8.57 1.3 0 .47-.2.93-.56 1.26-.35.34-.83.52-1.3.5h-1.3V13h.01zm0-3.17h1.3c.3 0 .57-.1.77-.32.4-.4.4-1 0-1.4-.2-.2-.48-.3-.78-.3h-1.3v2.1l.01-.08zm9.03 2.4a3.139 3.139 0 0 1-4.4 0 3.24 3.24 0 0 1 0-4.45c.58-.6 1.37-.92 2.2-.92.83 0 1.62.33 2.2.92a3.227 3.227 0 0 1 0 4.44v.01zm-3.83-.5c.9.9 2.36.9 3.26 0 .9-.98.9-2.47 0-3.45-.9-.9-2.36-.9-3.26 0-.9.98-.9 2.47 0 3.45zm5.8 1.27V7h2.17c.45 0 .9.16 1.22.46.34.3.52.73.52 1.17 0 .27-.08.54-.23.76-.14.2-.35.3-.6.4.3.1.55.2.74.5.1.2.2.5.2.8 0 .4-.2.9-.6 1.2-.4.3-.8.5-1.3.5H53l.17.21zm.77-3.43h1.4c.26 0 .52-.1.7-.3.35-.33.35-.9 0-1.25-.16-.2-.4-.3-.67-.28h-1.43v1.83zm0 2.7h1.55c.2 0 .5-.1.7-.32.2-.18.2-.42.3-.68-.1-.55-.5-1-1.1-.98h-1.5v1.9l.05.08zm4.36.73V7h.8v6h-.8zm5.66-5.26h-2.73v1.9h2.46v.72h-2.5v1.9h2.7V13h-3.5V7h3.5l.07.74zm1.2 5.26V7h2.05c.5 0 1 .17 1.4.5.7.64.8 1.7.2 2.4-.2.3-.6.53-1 .6v.03l1.7 2.44V13h-.9L67 10.57h-1V13h-.84zm.78-3.15h1.24c.3 0 .58-.1.8-.3.2-.2.33-.47.32-.76 0-.3-.1-.6-.3-.8-.2-.2-.47-.4-.77-.4h-1.3v2.1l.01.16zm3.9 3.15v-.8l3.2-4.46H70V7h3.95v.8l-3.2 4.46H74V13h-4.16zm6.9 0v-.8l3.2-4.46H76.9V7h3.93v.8l-3.2 4.46h3.23V13h-4.12z"/></g></svg>