<svg xmlns="http://www.w3.org/2000/svg" width="135" height="40"><g fill="none"><rect width="135" height="40" fill="#000" rx="5"/><path fill="#FFF" d="M30.128 19.795c-.03-3.223 2.64-4.79 2.76-4.864-1.51-2.2-3.852-2.5-4.675-2.52-1.967-.2-3.875 1.18-4.877 1.18-1.022 0-2.565-1.15-4.228-1.12-2.14.04-4.142 1.28-5.24 3.2-2.266 3.93-.576 9.69 1.595 12.86 1.086 1.56 2.355 3.29 4.016 3.23 1.62-.06 2.23-1.03 4.19-1.03 1.94 0 2.51 1.04 4.2 1 1.74-.02 2.84-1.56 3.89-3.12 1.25-1.78 1.76-3.53 1.78-3.62-.04-.01-3.39-1.29-3.42-5.15l.009-.046zm-3.2-9.478c.874-1.093 1.472-2.58 1.306-4.09-1.265.057-2.847.876-3.758 1.945-.806.942-1.526 2.486-1.34 3.938 1.42.106 2.88-.716 3.792-1.793zm26.718 21.2h-2.27l-1.245-3.91h-4.32l-1.18 3.91h-2.21l4.29-13.31h2.65l4.31 13.31h-.025zm-3.89-5.55L48.63 22.49c-.116-.355-.34-1.19-.67-2.508h-.04c-.13.566-.34 1.402-.63 2.508l-1.105 3.475h3.573l-.002.002zm14.907.633c0 1.63-.44 2.922-1.323 3.87-.79.84-1.77 1.263-2.942 1.263-1.264 0-2.172-.455-2.725-1.363h-.04v5.055H55.5V25.078c0-1.026-.026-2.08-.078-3.158h1.875l.12 1.52h.04c.71-1.145 1.79-1.717 3.237-1.717 1.132 0 2.077.447 2.833 1.342.757.895 1.136 2.073 1.136 3.534v.001zm-2.172.078c0-.935-.21-1.705-.63-2.31-.46-.632-1.08-.948-1.85-.948-.52 0-1 .175-1.43.523-.43.35-.71.807-.84 1.372-.06.264-.1.48-.1.65v1.6c0 .698.22 1.288.65 1.77.43.48.99.72 1.67.72.81 0 1.43-.31 1.88-.928.45-.62.67-1.436.67-2.45l-.02.001zM75.7 26.6c0 1.63-.44 2.922-1.324 3.87-.79.84-1.77 1.263-2.94 1.263-1.265 0-2.173-.455-2.726-1.363h-.04v5.055h-2.13V25.078c0-1.026-.028-2.08-.08-3.158h1.875l.12 1.52h.04c.71-1.145 1.788-1.717 3.237-1.717 1.13 0 2.076.447 2.834 1.342.755.895 1.134 2.073 1.134 3.534v.001zm-2.172.078c0-.935-.21-1.705-.633-2.31-.46-.632-1.078-.948-1.855-.948-.527 0-1.004.175-1.432.523a2.432 2.432 0 0 0-.84 1.372c-.064.264-.098.48-.098.65v1.6c0 .698.214 1.288.64 1.77.43.48.985.72 1.67.72.804 0 1.43-.31 1.876-.928.448-.62.672-1.436.672-2.45v.001zm14.512 1.105c0 1.133-.394 2.053-1.182 2.764-.867.777-2.075 1.166-3.625 1.166-1.432 0-2.58-.277-3.45-.83l.495-1.777c.935.566 1.962.85 3.08.85.805 0 1.43-.182 1.878-.543.447-.363.67-.848.67-1.455 0-.54-.184-.994-.552-1.363-.368-.37-.98-.713-1.836-1.03-2.33-.868-3.495-2.142-3.495-3.815 0-1.094.408-1.99 1.225-2.69.815-.7 1.9-1.048 3.258-1.048 1.21 0 2.218.21 3.02.632l-.532 1.738c-.75-.408-1.6-.612-2.547-.612-.75 0-1.336.185-1.757.553-.355.33-.533.73-.533 1.204 0 .526.204.96.612 1.304.35.32 1 .66 1.93 1.03 1.14.46 1.98 1 2.52 1.62.54.62.81 1.39.81 2.31l.011-.008zm7.048-4.263h-2.35v4.658c0 1.186.415 1.777 1.244 1.777.382 0 .697-.033.948-.098l.06 1.62c-.422.155-.975.235-1.66.235-.842 0-1.5-.258-1.974-.77-.474-.514-.71-1.377-.71-2.588v-4.837h-1.402V21.92h1.4v-1.758l2.094-.632v2.39h2.35v1.6zm10.602 3.12c0 1.474-.42 2.685-1.263 3.632-.882.975-2.054 1.46-3.515 1.46-1.41 0-2.53-.466-3.366-1.4-.836-.935-1.254-2.114-1.254-3.534 0-1.488.43-2.705 1.293-3.653.862-.948 2.024-1.42 3.485-1.42 1.408 0 2.54.466 3.396 1.4.817.907 1.225 2.078 1.225 3.514l-.001.001zm-2.21.067c0-.885-.19-1.643-.573-2.277-.447-.766-1.086-1.148-1.915-1.148-.856 0-1.508.383-1.955 1.148-.382.635-.572 1.406-.572 2.317 0 .885.19 1.644.572 2.276.46.766 1.105 1.148 1.936 1.148.815 0 1.454-.38 1.915-1.16.394-.64.59-1.41.59-2.29l.002-.014zm9.14-2.912c-.21-.04-.434-.06-.67-.06-.75 0-1.33.284-1.738.85-.355.5-.533 1.132-.533 1.896v5.04h-2.14l.02-6.57c0-1.1-.03-2.11-.08-3.02h1.85l.08 1.84h.06c.22-.63.58-1.14 1.06-1.52.47-.34.98-.51 1.54-.51.19 0 .37.02.53.04v2.03l.021-.016zm9.537 2.47c0 .38-.026.702-.08.966h-6.395c.025.95.335 1.68.928 2.18.54.45 1.237.67 2.093.67.947 0 1.81-.15 2.587-.45l.335 1.48c-.908.4-1.98.6-3.218.6-1.488 0-2.656-.44-3.505-1.31-.85-.87-1.273-2.05-1.273-3.52 0-1.44.39-2.65 1.18-3.61.83-1.02 1.95-1.54 3.35-1.54 1.38 0 2.43.52 3.14 1.54.56.82.84 1.82.84 3.02l.018-.026zm-2.033-.554c.013-.63-.126-1.17-.415-1.64-.37-.59-.94-.88-1.7-.88-.7 0-1.27.29-1.7.87-.36.46-.57 1.02-.63 1.66h4.44l.005-.01zM47.867 8.81c0 .602-.178 1.083-.533 1.445-.46.472-1.13.708-2.008.708-.26 0-.46-.013-.602-.045v2.532h-1.048V7a9.71 9.71 0 0 1 1.71-.137c.83 0 1.456.177 1.878.533.402.35.603.82.603 1.416V8.81zm-1.048.048c0-.382-.13-.674-.37-.878-.25-.204-.59-.306-1.03-.306-.29 0-.53.02-.71.058v2.348c.14.04.35.058.61.058.46 0 .82-.113 1.09-.34.26-.225.39-.54.39-.94h.02zm6.9 2.192c0 .725-.21 1.32-.62 1.785-.44.48-1.01.718-1.73.718-.7 0-1.25-.226-1.66-.686-.41-.46-.62-1.038-.62-1.736 0-.73.21-1.33.63-1.79.42-.46.99-.7 1.71-.7.69 0 1.24.23 1.67.69.39.45.6 1.02.6 1.73l.02-.011zm-1.09.035c0-.435-.1-.808-.28-1.12-.22-.375-.54-.563-.94-.563-.43 0-.75.188-.97.564-.19.31-.28.69-.28 1.138 0 .435.09.808.28 1.12.22.375.54.563.95.563.4 0 .71-.19.94-.574.19-.315.29-.69.29-1.125l.01-.003zm7.13-.063c0 .795-.22 1.43-.66 1.9-.39.42-.87.632-1.43.632-.68 0-1.17-.278-1.49-.834h-.02l-.06.728h-.89c.02-.38.03-.805.03-1.27v-5.61h1.05V9.42h.02c.31-.525.81-.787 1.5-.787.57 0 1.03.218 1.39.655.36.437.54 1.014.54 1.732l.02.002zm-1.07.038c0-.46-.11-.834-.31-1.125a1.086 1.086 0 0 0-.92-.476c-.26 0-.5.08-.7.25-.21.16-.35.39-.42.66-.03.11-.04.22-.04.33v.82c0 .32.11.6.32.83.21.23.48.35.81.35.39 0 .7-.15.92-.45.22-.3.33-.7.33-1.22l.01.031zm3.78-3.734c0 .188-.06.34-.19.456a.658.658 0 0 1-.48.175c-.18 0-.33-.06-.44-.18a.61.61 0 0 1-.18-.45.603.603 0 0 1 .63-.616c.18 0 .33.06.452.18.13.12.19.27.19.45l.018-.015zm-.12 6.12H61.3V8.73h1.05v4.714l-.001.002zm5.74-2.58c0 .188-.02.346-.04.475h-3.14c.01.47.16.82.45 1.07.26.22.61.33 1.03.33.46 0 .89-.07 1.27-.22l.16.73c-.45.2-.98.29-1.58.29-.73 0-1.31-.21-1.73-.64-.42-.43-.628-1-.628-1.73 0-.71.193-1.3.582-1.77.403-.5.952-.75 1.644-.75.68 0 1.192.25 1.54.76.28.4.42.9.42 1.48l.022-.025zm-1-.27c.01-.312-.06-.58-.2-.806-.19-.29-.46-.437-.84-.437-.35 0-.62.145-.84.43-.18.227-.28.498-.31.815h2.18l.01-.002zm5.01-.942c-.1-.02-.21-.03-.33-.03-.37 0-.65.14-.85.418-.18.246-.26.556-.26.93v2.475h-1.04l.01-3.23c0-.543-.02-1.038-.04-1.484h.91l.04.905h.03c.11-.31.28-.56.52-.747.23-.16.48-.25.76-.25.1 0 .19.01.27.02v1l-.02-.007zm4.7 3.792h-3.84v-.61l1.88-2.474c.11-.155.33-.41.64-.767v-.02h-2.33V8.73h3.61v.65l-1.84 2.435c-.21.265-.42.52-.64.766v.02h2.53v.85l-.01-.005zM87.36 8.73l-1.476 4.714h-.96l-.61-2.047a14.54 14.54 0 0 1-.38-1.523h-.02c-.09.518-.217 1.025-.38 1.523l-.65 2.047h-.97l-1.38-4.714h1.076l.533 2.24c.13.53.235 1.036.32 1.514h.02c.077-.394.206-.896.388-1.503l.67-2.25h.86l.64 2.21c.16.54.28 1.06.38 1.55h.03c.07-.48.18-1 .32-1.55l.57-2.2h1.03l-.011-.011z"/></g></svg>