<svg xmlns="http://www.w3.org/2000/svg" width="20" height="20"><mask id="a" width="20" height="20" x="0" y="0" maskUnits="userSpaceOnUse" style="mask-type:alpha"><path fill="#C4C4C4" d="M0 0h20v20H0z"/></mask><g fill="#767676" fill-rule="evenodd" clip-rule="evenodd" mask="url(#a)"><path d="M8.961 16.9c-1.43 0-2.58-.319-3.426-.991-.909-.712-1.369-1.798-1.369-3.15v-.067c0-3.94 4.23-4.436 5.61-4.436h3.216v-.283c0-.566-.219-1.45-1.041-1.867-1.17-.594-3.477-.37-5.403.837-.234.15-.542.063-.561-.2L5.87 4.796V4.78c0-.097.048-.189.129-.243 1.329-.799 2.935-1.204 4.494-1.204 1.567 0 3.227.445 4.1 1.384.843.909 1.232 2.265 1.232 4.031l.004 3.976.004 3.79a.387.387 0 0 1-.382.386h-6.49Zm4.034-6.26H9.951c-2.323 0-2.79 1.383-2.803 2.083v.016c.004.527.207.928.644 1.27.405.319.853.452 1.36.484h3.843v-3.854Z"/>ś</g></svg>